# xmcd CD database file
#
# Track frame offsets:
#	150
#	19805
#	36207
#	48850
#	67697
#	87460
#	108862
#	130002
#	149602
#	173772
#
# Disc length: 2571 seconds
#
# Revision: 12
# Processed by: cddbd v1.5.2PL0 Copyright (c) Steve Scherf et al.
# Submitted via: CDex 1.50beta10
#
DISCID=7d0a090a
DTITLE=夏韶聲 - 諳
DYEAR=2000
DGENRE=Jazz
TTITLE0=假如
TTITLE1=浪子心聲
TTITLE2=心債
TTITLE3=等
TTITLE4=明星
TTITLE5=風繼續吹
TTITLE6=隨想曲
TTITLE7=最愛是誰
TTITLE8=霧之戀
TTITLE9=Goodbye My Love
EXTD=twetrwretwweer YEAR: 2000
EXTT0=
EXTT1=
EXTT2=
EXTT3=
EXTT4=
EXTT5=
EXTT6=
EXTT7=
EXTT8=
EXTT9=
PLAYORDER=
